<svg width="128" height="84" viewBox="0 0 128 84" fill="none" xmlns="http://www.w3.org/2000/svg">
<path id="icon" d="M23.7062 35.663C13.4553 19.1977 -1.54629 29.3017 0.129088 35.663C2.17927 43.4474 8.05521 31.4727 12.724 35.663L23.7062 53.1416C18.5807 60.2144 19.4768 58.6035 9.22589 71.7388C6.15061 75.6794 -1.02508 73.7596 0.129088 78.8116C2.05018 83.8636 4.10037 84.874 9.22583 82.8532C16.1837 80.1099 25.7735 65.0048 29.1905 60.6263C35.9267 69.608 49.2045 86.8948 56.3802 78.8116C58.7976 76.0885 59.4554 68.7076 53.3048 71.7388C48.4329 74.1399 39.6691 60.6243 36.6752 55.387C34.6686 51.8769 42.1579 44.052 46.2582 39L52.5794 31C78.2067 -0.322557 113.231 5.68762 127.24 14.4445C94.4375 -16.2718 59.5844 9.05564 46.2582 25.5589L29.8568 45.767L26.7814 40.4162L23.7062 35.663Z" fill="#27B5DE"/>
</svg>
