<svg width="300" height="85" viewBox="0 0 300 85" fill="none" xmlns="http://www.w3.org/2000/svg">
<g id="logo">
<path id="Vector 1" d="M62.6268 35.663C52.3759 19.1977 37.3743 29.3017 39.0497 35.663C41.0999 43.4474 46.9758 31.4727 51.6447 35.663L62.6268 53.1416C57.5014 60.2144 58.3974 58.6035 48.1465 71.7388C45.0712 75.6794 37.8955 73.7596 39.0497 78.8116C40.9708 83.8636 43.021 84.874 48.1465 82.8532C55.1044 80.1099 64.6941 65.0048 68.1111 60.6263C74.8473 69.608 88.1252 86.8948 95.3008 78.8116C97.7182 76.0885 98.376 68.7076 92.2255 71.7388C87.3535 74.1399 78.5897 60.6243 75.5958 55.387C73.5892 51.8769 81.0785 44.052 85.1788 39L91.5 31C117.127 -0.322557 152.152 5.68762 166.161 14.4445C133.358 -16.2718 98.505 9.05564 85.1788 25.5589L68.7774 45.767L65.7021 40.4162L62.6268 35.663Z" fill="#27B5DE"/>
<path id="Vector 2" d="M30.9023 38.3701C35.9267 41.166 32.1844 44.1599 28.6569 45.1064C24.6996 46.4054 14.6854 44.6074 9.19657 45.1064L7.69963 56.3335C7.20064 56.5829 11.2271 56.884 11.2271 56.884C11.2271 56.884 15.3837 57.4345 18.7118 56.884C22.04 56.3335 29.4054 53.3396 27.9084 59.3273C26.7108 64.1176 13.9369 63.8182 7.69963 63.0697V72.7999C7.69963 78.7877 22.0485 76.0151 25.663 75.0453C29.1905 74.0989 38.387 72.7999 32.3992 78.7877C26.4115 84.7754 8.44812 85.5239 2.46034 79.5361C-2.32989 74.7459 0.963389 52.0921 3.20881 41.364C3.95728 36.1247 12.1905 37.6216 18.9267 37.6216C24.3158 37.6216 29.1905 37.4175 30.9023 38.3701Z" fill="#1A1D1A"/>
<path id="Vector 3" d="M107.096 65.2898C104.612 69.7807 102.356 76.2674 101.857 79.5108C101.108 83.0805 107.096 84.5775 108.593 81.7562L113.084 69.7807C117.537 71.0939 127.143 70.2933 133.142 69.7932L133.293 69.7807L137.784 81.0078C140.777 87.5714 148.262 81.7562 145.268 78.0139C143.398 75.676 132.544 51.8173 130.299 44.3326C128.053 36.8478 125.808 35.3509 122.066 36.0994C118.323 36.8478 110.09 59.8779 107.096 65.2898Z" fill="#1A1D1A"/>
<path id="Vector 4" d="M123.498 44.9907C122.301 43.7931 117.51 55.9683 115.265 62.2055C121.253 64.6006 127.739 63.2035 130.234 62.2055C128.737 59.2116 124.995 46.4876 123.498 44.9907Z" fill="#F2F4FF"/>
<path id="Vector 5" d="M151.241 40.3812C151.84 43.3751 151.989 68.5737 151.989 80.7988C154.983 86.0381 160.223 80.7988 159.474 80.7988C158.875 80.7988 158.227 60.3405 157.977 50.1114C158.726 51.6083 161.42 56.2488 166.21 62.8354C171.001 69.422 174.693 67.0768 175.941 65.0808L188.665 49.3629C188.914 58.3446 188.665 76.9971 188.665 80.0503C188.665 84.4412 197.539 86.6518 196.898 80.7988C194.019 54.5023 196.898 55.2508 196.149 45.6205C195.401 35.9903 190.91 38.8843 189.413 39.6327C188.216 40.2315 177.438 53.3547 172.198 59.8415C168.206 54.8517 162.427 45.6205 160.223 40.3812C158.481 36.2418 150.492 36.6388 151.241 40.3812Z" fill="#1A1D1A"/>
<path id="Vector 6" d="M214.164 37.1619C213.08 32.9663 206.579 34.1918 206.579 36.9023L206.579 58.3809L206.579 79.9694C208.746 85.4268 213.08 84.9439 214.164 79.4865C214.164 53.1416 213.08 60.1805 214.164 37.1619Z" fill="#1A1D1A"/>
<path id="Vector 7" d="M248.65 35.9682C253.141 36.1231 255.386 37.2156 256.135 38.2136C256.883 38.9566 256.883 45.6983 253.141 43.4529C250.147 41.6566 239.355 42.546 233.524 44.1599C231.87 44.7915 232.027 54.5631 232.932 55.4285C234.014 56.4629 232.932 56.9254 241.165 55.4285C249.398 53.9315 253.141 56.177 250.895 59.9193C249.099 62.9132 238.171 62.6637 232.932 62.1648C231.278 62.1648 232.683 73.8908 232.184 78.6312C231.685 83.3715 224.542 84.502 224.542 80.0112C224.542 75.2774 225.447 41.2075 226.196 38.2136C226.795 35.8184 241.008 35.8513 248.65 35.9682Z" fill="#1A1D1A"/>
<path id="Vector 8" d="M257.735 39.9656C256.091 36.673 262.669 34.7523 265.136 36.673C268.973 41.8863 276.976 52.3129 278.292 52.3129C279.936 52.3129 288.159 39.9661 291.448 35.027L291.448 35.0267C294.737 30.0878 301.315 35.0268 298.848 38.1607C297.027 40.4739 285.692 52.9774 282.403 61.2089C283.225 66.1478 282.951 75.3612 283.225 81.1232C279.279 86.3914 276.099 82.7695 275.003 80.3001C275.551 76.4587 276.318 67.6235 275.003 63.0139C273.687 58.4042 262.943 45.7277 257.735 39.9656Z" fill="#1A1D1A"/>
</g>
</svg>
